<svg id="get-creative" xmlns="http://www.w3.org/2000/svg" viewBox="0 0 136.38 27.27"><title>get-creative</title><g id="get-creative-2" data-name="get-creative"><path id="G" d="M181.81,156.36a4.54,4.54,0,0,1,2.16-3.49v-.12a2.6,2.6,0,0,1-1.27-2.32,3.41,3.41,0,0,1,1.57-2.66v-.12a5.32,5.32,0,0,1-1.83-4,5,5,0,0,1,5.09-5.1,5.08,5.08,0,0,1,1.92.36h4.9v1.13H191a4.75,4.75,0,0,1,1.59,3.62,5,5,0,0,1-5.05,5.11,4.86,4.86,0,0,1-2.39-.62,2.67,2.67,0,0,0-1.17,2.09c0,1.05.6,1.88,2.75,1.88h3.1c3.25,0,4.77,1,4.77,3.32,0,2.49-2.67,4.88-6.84,4.88C184.11,160.36,181.81,158.8,181.81,156.36Zm11.42-.74c0-1.59-1.16-2.2-3.35-2.2h-3.1a9.42,9.42,0,0,1-1.78-.23,3.73,3.73,0,0,0-1.9,3c0,1.83,1.75,3.06,4.79,3.06C191.15,159.28,193.23,157.44,193.23,155.62Zm-2-11.93a3.75,3.75,0,1,0-7.48,0,3.75,3.75,0,1,0,7.48,0Z" transform="translate(-181.81 -133.1)"/><path id="E" d="M196.13,146.2c0-4.71,3.07-7.61,6.31-7.61,3.42,0,5.53,2.43,5.53,6.69a5.61,5.61,0,0,1-.08,1.08H197.5c.05,3.65,2.19,6.25,5.44,6.25a6.5,6.5,0,0,0,3.89-1.28l.54,1a7.87,7.87,0,0,1-4.55,1.42C199.13,153.76,196.13,150.93,196.13,146.2Zm10.59-.94c0-3.69-1.68-5.52-4.27-5.52s-4.65,2.07-5,5.52Z" transform="translate(-181.81 -133.1)"/><path id="T" d="M211.92,149.41v-9.3h-2.26v-1L212,139l.17-4.19h1.13V139h4.19v1.16h-4.19v9.4c0,1.85.46,3.09,2.45,3.09a5.25,5.25,0,0,0,1.82-.46l.35,1.08a8.15,8.15,0,0,1-2.36.54C212.73,153.76,211.92,152,211.92,149.41Z" transform="translate(-181.81 -133.1)"/><path id="C" d="M225.77,146.2c0-4.83,3.09-7.61,6.6-7.61a6,6,0,0,1,4.24,1.78l-.79.93a4.92,4.92,0,0,0-3.42-1.54c-3,0-5.23,2.64-5.23,6.44s2.07,6.39,5.22,6.39a5.79,5.79,0,0,0,3.87-1.67l.68.94a6.88,6.88,0,0,1-4.61,1.9C228.59,153.76,225.77,151,225.77,146.2Z" transform="translate(-181.81 -133.1)"/><path id="R" d="M240.49,139h1.12l.15,2.69h.06c1-1.77,2.4-3,4.12-3a3,3,0,0,1,1.43.3l-.3,1.2a3.32,3.32,0,0,0-1.31-.24c-1.3,0-2.84,1-3.94,3.72v9.83h-1.33Z" transform="translate(-181.81 -133.1)"/><path id="E2" d="M248.52,146.2c0-4.71,3.06-7.61,6.3-7.61,3.43,0,5.53,2.43,5.53,6.69a6.53,6.53,0,0,1-.07,1.08H249.89c0,3.65,2.18,6.25,5.44,6.25a6.47,6.47,0,0,0,3.88-1.28l.55,1a7.93,7.93,0,0,1-4.56,1.42C251.51,153.76,248.52,150.93,248.52,146.2Zm10.58-.94c0-3.69-1.67-5.52-4.27-5.52-2.44,0-4.65,2.07-5,5.52Z" transform="translate(-181.81 -133.1)"/><path id="A" d="M262.78,149.81c0-3.22,2.9-4.75,9.32-5.46,0-2.22-.56-4.6-3.4-4.6a8,8,0,0,0-4.61,1.7l-.61-1a9.72,9.72,0,0,1,5.37-1.87c3.43,0,4.59,2.48,4.59,5.58v9.23h-1.13l-.14-1.88h-.07a8.47,8.47,0,0,1-5.13,2.24C264.68,153.76,262.78,152.52,262.78,149.81Zm9.32.47v-4.91c-5.93.68-8,2.06-8,4.37,0,2.07,1.4,2.87,3.06,2.87S270.32,151.81,272.1,150.28Z" transform="translate(-181.81 -133.1)"/><path id="T2" d="M278.6,149.41v-9.3h-2.26v-1l2.29-.12.17-4.19h1.13V139h4.19v1.16h-4.19v9.4c0,1.85.46,3.09,2.46,3.09a5.2,5.2,0,0,0,1.81-.46l.35,1.08a8.15,8.15,0,0,1-2.36.54C279.41,153.76,278.6,152,278.6,149.41Z" transform="translate(-181.81 -133.1)"/><path id="I" d="M287.13,134.28a1.21,1.21,0,0,1,2.42,0,1.21,1.21,0,0,1-2.42,0Zm.52,4.67H289V153.4h-1.33Z" transform="translate(-181.81 -133.1)"/><path id="V" d="M292.11,139h1.44L296.8,148c.47,1.4,1,2.86,1.47,4.16h.12c.47-1.3,1-2.76,1.46-4.16L303.1,139h1.36l-5.35,14.45h-1.57Z" transform="translate(-181.81 -133.1)"/><path id="E3" d="M306.35,146.2c0-4.71,3.07-7.61,6.31-7.61,3.42,0,5.53,2.43,5.53,6.69a5.61,5.61,0,0,1-.08,1.08H307.72c0,3.65,2.18,6.25,5.44,6.25a6.44,6.44,0,0,0,3.88-1.28l.55,1a7.93,7.93,0,0,1-4.56,1.42C309.34,153.76,306.35,150.93,306.35,146.2Zm10.59-.94c0-3.69-1.68-5.52-4.27-5.52s-4.66,2.07-5,5.52Z" transform="translate(-181.81 -133.1)"/></g></svg>